<svg width="1200" height="800" viewBox="0 0 1200 800" xmlns="http://www.w3.org/2000/svg">
  <g fill="none" stroke="#7dd3fc" stroke-width="1.5" opacity="0.9">
    <circle cx="240" cy="220" r="120" />
    <circle cx="240" cy="220" r="68" />
    <circle cx="240" cy="220" r="28" />
    <circle cx="820" cy="300" r="160" />
    <circle cx="820" cy="300" r="96" />
    <circle cx="820" cy="300" r="42" />
    <rect x="420" y="420" width="300" height="120" rx="24" />
    <rect x="460" y="450" width="220" height="60" rx="18" />
    <path d="M120 520 L360 520 L420 480" />
    <path d="M900 540 L1080 540 L1140 500" />
    <path d="M240 340 L240 520" />
    <path d="M820 460 L820 660" />
    <path d="M420 220 L640 220" />
    <path d="M620 220 L700 280" />
    <path d="M700 280 L820 300" />
    <path d="M140 140 L200 180" />
    <path d="M200 180 L260 140" />
    <path d="M260 140 L320 180" />
    <path d="M940 180 L1000 220" />
    <path d="M1000 220 L1060 180" />
    <path d="M1060 180 L1120 220" />
  </g>
  <g fill="#7dd3fc" font-family="Manrope, Arial, sans-serif" font-size="14" opacity="0.7">
    <text x="120" y="110">01</text>
    <text x="320" y="110">02</text>
    <text x="700" y="120">03</text>
    <text x="1020" y="140">04</text>
    <text x="470" y="610">05</text>
    <text x="880" y="700">06</text>
  </g>
  <g stroke="#7dd3fc" stroke-width="1" opacity="0.6">
    <line x1="240" y1="100" x2="240" y2="40" />
    <line x1="820" y1="120" x2="820" y2="50" />
    <line x1="540" y1="540" x2="540" y2="740" />
    <line x1="960" y1="420" x2="1180" y2="420" />
  </g>
</svg>
